<svg width="471" height="367" viewBox="0 0 471 367" fill="none" xmlns="http://www.w3.org/2000/svg">
<g clip-path="url(#clip0)">
<path d="M368.144 265.922C368.144 321.748 285.73 367 184.072 367C129.458 367 80.4004 353.942 46.6929 333.196C24.6991 319.664 9.23709 302.857 3.0344 284.283C1.03256 278.368 0.00770107 272.166 0 265.922C0 210.101 152.54 -41.6973 184.072 164.849C215.604 371.395 368.144 210.101 368.144 265.922Z" fill="#2A3D45"/>
<path opacity="0.1" d="M275.55 302.578C275.55 323.191 210.372 339.903 129.966 339.903C98.9972 339.903 70.2876 337.424 46.6929 333.196C24.6991 319.664 9.23711 302.857 3.03442 284.283C27.9957 272.924 75.4863 265.253 129.966 265.253C210.372 265.253 275.55 281.966 275.55 302.578Z" fill="black"/>
<path d="M170.463 89.9754C158.926 70.5048 136.099 69.5974 136.099 69.5974C136.099 69.5974 113.856 66.7566 99.5873 96.4105C86.2876 124.05 67.9323 150.737 96.6322 157.208L101.816 141.093L105.027 158.407C109.113 158.701 113.212 158.771 117.306 158.617C148.041 157.626 177.312 158.907 176.37 147.892C175.117 133.249 181.565 108.71 170.463 89.9754Z" fill="#2F2E41"/>
<path d="M94.9935 260.488C94.5656 262.613 94.249 264.774 93.5217 266.816C92.7997 268.844 91.6851 270.719 91.0249 272.767C88.9207 279.297 91.8378 286.578 96.4968 291.618C100.537 295.971 105.752 299.064 111.513 300.524C115.716 301.579 120.087 301.731 124.418 301.878C136.412 302.284 148.715 302.648 160.08 298.798C163.671 297.552 167.139 295.978 170.441 294.097C171.483 293.601 172.402 292.879 173.129 291.983C173.996 290.75 174.107 289.152 174.099 287.646C174.074 282.568 173.043 277.515 173.288 272.443C173.423 269.633 173.95 266.826 173.691 264.025C173.103 257.673 168.052 251.988 161.807 250.648C158.583 249.957 155.239 250.334 151.957 250.649C143.437 251.466 134.88 251.849 126.321 251.794C117.576 251.738 108.884 250.405 100.183 250.265C97.6091 250.224 97.6611 251.016 96.8418 253.504C96.0872 255.793 95.47 258.126 94.9935 260.488Z" fill="#2F2E41"/>
<path d="M119.812 135.096C119.392 137.293 118.938 139.572 117.615 141.378C116.094 143.456 113.613 144.643 111.976 146.632C109.513 149.625 109.371 153.837 109.361 157.712C109.352 161.282 109.424 165.089 111.417 168.052C112.711 169.975 114.679 171.323 116.603 172.618C124.077 177.649 132.154 182.77 141.166 182.936C144.9 183.005 148.904 182.042 151.361 179.232C152.422 177.913 153.256 176.427 153.829 174.834C156.134 169.161 157.53 163.162 157.969 157.055C158.174 154.182 158.154 151.226 157.181 148.514C156.086 145.466 153.872 142.957 152.409 140.067C150.68 136.63 150.047 132.746 150.597 128.939C150.67 128.671 150.647 128.386 150.533 128.132C150.413 127.997 150.263 127.891 150.095 127.823C149.926 127.755 149.745 127.726 149.564 127.74L131.695 126.455C130.03 126.373 128.373 126.184 126.733 125.889C125.77 125.693 123.226 124.327 122.307 124.69C120.607 125.362 120.161 133.273 119.812 135.096Z" fill="#A0616A"/>
<path opacity="0.1" d="M119.812 135.653C119.392 137.851 118.938 140.129 117.615 141.935C116.094 144.013 113.613 145.2 111.976 147.189C109.513 150.182 109.371 154.394 109.361 158.269C109.352 161.839 109.424 165.646 111.417 168.609C112.711 170.532 114.679 171.88 116.603 173.175C124.077 178.206 132.154 183.327 141.166 183.493C144.9 183.562 148.904 182.599 151.361 179.79C152.422 178.47 153.256 176.984 153.829 175.392C156.134 169.718 157.53 163.719 157.969 157.612C158.174 154.739 158.154 151.783 157.181 149.072C156.086 146.023 153.872 143.515 152.409 140.624C150.68 137.187 150.047 133.303 150.597 129.496C150.67 129.228 150.647 128.943 150.533 128.69C150.413 128.554 150.263 128.448 150.095 128.38C149.926 128.312 149.745 128.284 149.564 128.297L131.695 127.013C130.03 126.93 128.373 126.741 126.733 126.446C125.77 126.25 123.226 124.884 122.307 125.247C120.607 125.92 120.161 133.83 119.812 135.653Z" fill="black"/>
<path d="M136.901 137.489C151.38 137.489 163.117 125.766 163.117 111.306C163.117 96.8451 151.38 85.1225 136.901 85.1225C122.422 85.1225 110.685 96.8451 110.685 111.306C110.685 125.766 122.422 137.489 136.901 137.489Z" fill="#A0616A"/>
<path d="M123.489 169.95C124.856 171.376 126.303 172.788 128.094 173.625C129.875 174.456 131.881 174.663 133.847 174.718C138.572 174.851 143.695 173.986 146.983 170.593C151.221 166.219 151.081 159.164 154.403 154.062C154.67 153.599 155.035 153.2 155.473 152.892C156.03 152.589 156.66 152.445 157.293 152.474C161.489 152.435 165.143 155.153 168.441 157.742C169.918 158.902 171.433 160.104 172.365 161.734C173.017 163.005 173.463 164.371 173.688 165.781C175.324 173.76 175.854 181.919 176.381 190.047C176.671 194.536 176.962 199.03 176.94 203.529C176.869 218.351 173.42 232.924 169.99 247.345C169.548 249.203 168.943 251.28 167.251 252.17C166.497 252.508 165.687 252.706 164.861 252.752C155.036 253.904 145.191 255.058 135.3 255.21C131.44 255.27 127.582 255.176 123.726 254.93C123.062 254.922 122.404 254.807 121.776 254.591C120.924 254.182 120.192 253.561 119.65 252.788C114.3 246.055 113.984 236.746 114.018 228.15C114.102 207.133 114.854 186.134 116.274 165.151C116.391 163.419 116.417 161.316 115.167 159.954C117.417 163.551 120.546 166.878 123.489 169.95Z" fill="#D0CDE1"/>
<path d="M117.936 139.717C117.051 141.318 110.523 145.293 109.262 146.62C102.221 154.032 89.3692 153.754 82.9293 161.694C80.6635 164.487 79.4863 167.997 78.6206 171.487C77.3961 176.422 76.7422 181.804 78.7935 186.458C80.7673 190.935 84.9223 194.031 87.7432 198.031C90.8406 202.422 92.2333 207.755 93.5679 212.959C94.5534 216.801 95.547 220.738 95.1632 224.686C94.7268 229.175 92.552 233.285 91.268 237.608C89.9839 241.931 89.7623 247.081 92.7312 250.478C94.9124 252.975 98.3336 253.964 101.604 254.521C105.778 255.232 110.02 255.434 114.25 255.62C117.988 255.785 122.109 255.817 124.982 253.424C127.25 251.536 128.235 248.471 128.363 245.525C128.491 242.579 127.877 239.659 127.492 236.735C127.094 233.704 126.941 230.647 126.813 227.593C126.238 213.89 126.159 200.177 126.577 186.456C126.664 183.601 126.77 180.71 126.16 177.919C125.359 174.249 123.372 170.969 121.715 167.596C118.425 160.902 116.87 154.399 117.378 146.959C117.88 139.616 121.087 134.021 117.936 139.717Z" fill="#575A89"/>
<path d="M154.75 140.274C156.099 141.659 160.682 142.115 162.397 143.007C163.973 143.826 165.717 144.254 167.424 144.745C173.682 146.548 179.635 149.277 185.084 152.84C186.216 153.501 187.217 154.365 188.037 155.387C188.997 156.721 189.345 158.385 189.671 159.995C190.511 164.151 191.355 168.357 191.166 172.592C190.966 177.088 189.61 181.443 188.265 185.738L183.238 201.787C179.486 213.767 175.711 225.865 174.655 238.372C174.071 245.305 174.331 252.282 175.428 259.151C175.539 259.842 175.631 260.634 175.175 261.164C174.844 261.491 174.408 261.691 173.944 261.73C171.518 262.109 169.17 260.873 166.972 259.78C160.254 256.441 153.084 254.098 145.689 252.825C148.579 248.654 150.809 244.064 152.3 239.215C153.147 236.137 153.813 233.011 154.297 229.855L156.635 216.349C157.493 211.396 158.352 206.43 158.641 201.413C158.818 199.531 158.708 197.634 158.316 195.786C157.868 194.003 156.978 192.369 156.18 190.712C152.326 182.706 150.518 173.57 152.035 164.818C152.698 160.987 153.988 157.152 153.45 153.302C152.933 149.6 153.47 146.723 152.519 143.06C148.615 128.018 152.213 137.67 154.75 140.274Z" fill="#575A89"/>
<path d="M82.8626 174.352C81.1058 177.993 78.1687 181.094 77.1691 185.011C76.7801 186.841 76.6134 188.712 76.6727 190.582C76.649 193.401 76.6336 196.276 77.5002 198.959C78.0581 200.686 78.9658 202.279 79.6197 203.972C80.5313 206.338 80.9374 208.867 80.8119 211.399C80.6355 214.906 79.4425 218.31 79.3493 221.821C79.2027 227.341 81.7592 232.531 84.2538 237.459C84.8817 235.906 85.8417 234.509 87.0667 233.365C88.2917 232.222 89.7521 231.359 91.3458 230.838C92.9394 230.317 94.6278 230.15 96.2929 230.349C97.9579 230.547 99.5594 231.107 100.985 231.988C101.643 231.381 101.714 230.385 101.739 229.49C101.924 223.086 102.102 216.681 102.273 210.276C102.543 200.371 102.8 190.333 100.519 180.689C99.4885 176.335 97.8857 171.998 94.9474 168.621C93.4002 166.843 88.1478 162.159 85.608 164.151C84.4659 165.047 84.7328 167.485 84.5518 168.72C84.2787 170.672 83.709 172.571 82.8626 174.352Z" fill="#575A89"/>
<path d="M191.68 163.859C192.511 166.443 192.561 169.205 192.577 171.919C192.611 177.455 192.537 182.991 192.357 188.526C192.264 191.359 192.137 194.232 191.277 196.934C190.709 198.716 189.834 200.386 189.248 202.162C187.492 207.484 188.451 213.256 188.602 218.858C188.708 220.67 188.553 222.489 188.142 224.258C187.215 227.731 184.725 230.536 182.987 233.683C181.336 236.671 180.34 240.021 178.368 242.809C176.397 245.596 172.984 247.805 169.676 246.949C167.169 246.301 165.388 244.085 164.156 241.811C161.468 236.81 160.548 231.049 161.547 225.461C162.784 218.663 166.782 212.632 168.224 205.873C170.204 196.593 167.195 187.017 167.284 177.528C167.243 176.041 167.445 174.557 167.882 173.135C168.639 170.967 170.263 169.237 171.764 167.498C173.639 165.326 175.381 163.043 176.981 160.661C178.055 159.06 179.514 154.944 181.419 154.602C185.672 153.838 190.625 160.578 191.68 163.859Z" fill="#575A89"/>
<path d="M60.7959 256.361C58.4442 255.771 56.0212 255.514 53.5978 255.597C51.0516 255.737 48.5645 256.418 46.3019 257.593C44.0393 258.768 42.0531 260.41 40.4753 262.411C38.8975 264.412 37.7644 266.725 37.1511 269.197C36.5378 271.669 36.4585 274.244 36.9185 276.749C37.4192 279.475 38.5439 282.046 39.7708 284.533C41.6798 288.402 43.9693 292.262 47.5033 294.742C49.5706 296.192 51.9632 297.097 54.3275 297.986L72.9403 304.989C75.6785 306.019 78.417 307.05 81.1823 308.005C95.0747 312.801 109.559 315.677 124.231 316.552C128.701 316.818 133.237 316.892 137.598 315.876C138.632 315.635 139.736 315.275 140.335 314.399C140.69 313.782 140.899 313.092 140.947 312.381L142.092 304.373C142.253 303.246 142.408 302.059 141.994 300.998C141.47 299.652 140.155 298.805 138.901 298.086C126.664 291.066 112.376 287.194 102.077 277.56C99.6519 275.292 97.6228 271.697 94.6768 270.157C91.336 268.41 87.4017 267.413 83.9486 265.803C76.3996 262.284 68.9776 258.239 60.7959 256.361Z" fill="#2F2E41"/>
<path opacity="0.1" d="M79.3781 267.157C85.957 269.216 113.733 283.48 118.494 288.46C117.856 288.69 96.2038 276.571 95.5541 276.376C89.6484 274.606 83.7099 272.824 78.1016 270.234C76.9734 269.712 70.7719 267.263 71.0528 265.841C71.3697 264.237 78.2102 266.792 79.3781 267.157Z" fill="black"/>
<path d="M161.454 320.705C161.827 320.733 162.197 320.624 162.496 320.399C162.628 320.231 162.724 320.038 162.78 319.832C162.836 319.627 162.85 319.412 162.822 319.2C162.812 315.564 162.802 311.927 162.792 308.291C159.651 306.796 156.137 306.317 152.688 305.856L136.597 303.708C136.966 303.758 134.081 310.63 134.523 311.548C135.303 313.165 141.263 314.598 142.945 315.362C148.792 318.016 154.868 320.934 161.454 320.705Z" fill="#A0616A"/>
<path d="M110.966 308.253C107.928 308.736 104.537 309.163 102.569 311.526C100.074 314.521 101.137 318.986 102.327 322.697C102.504 323.448 102.859 324.145 103.362 324.73C104.174 325.53 105.419 325.648 106.558 325.72C109.329 325.895 112.277 326.032 114.698 324.675C115.845 324.032 116.792 323.093 117.861 322.327C119.646 321.141 121.608 320.245 123.675 319.672C127.473 318.479 131.384 317.674 135.345 317.27C136.898 317.112 138.482 317.01 139.943 316.461C141.404 315.911 142.756 314.822 143.181 313.321C143.742 311.339 142.588 309.317 141.481 307.579C140.103 305.413 138.643 303.132 136.587 301.538C133.589 299.212 132.106 300.997 129.086 302.486C123.369 305.304 117.261 307.248 110.966 308.253Z" fill="#A0616A"/>
<path d="M103.027 310.986L83.7349 305.291C81.3886 304.599 79.0023 303.9 76.5558 303.902C74.1092 303.904 71.5495 304.705 69.9627 306.565C68.4668 308.318 68.0386 310.715 67.6657 312.988L66.868 317.851C66.4625 320.323 66.0564 322.842 66.4213 325.319C66.7862 327.797 68.0526 330.272 70.2538 331.472C72.9233 332.926 76.1953 332.216 79.1747 331.607C85.1929 330.379 91.3142 329.723 97.4564 329.649C99.7655 329.622 102.188 329.651 104.228 328.571C106.653 327.287 108.104 324.572 108.354 321.842C108.734 317.688 107.347 312.262 103.027 310.986Z" fill="#2F2E41"/>
<path d="M169.037 306.024C171.538 305.586 173.745 304.166 176.141 303.328C179.514 302.149 183.17 302.149 186.743 302.162C188.055 302.167 189.452 302.196 190.544 302.922C192.118 303.969 192.522 306.064 192.79 307.933C193.328 311.694 193.866 315.454 194.405 319.214C194.708 321.336 195.01 323.514 194.536 325.605C194.063 327.696 192.636 329.711 190.559 330.25C188.036 330.905 185.563 329.296 183.181 328.238C177.228 325.596 170.308 326.271 164.1 324.296C162.948 323.93 161.715 323.369 161.245 322.257C161.032 321.63 160.957 320.966 161.023 320.307C161.129 316.681 160.363 311.73 161.456 308.265C162.439 305.148 166.245 306.024 169.037 306.024Z" fill="#2F2E41"/>
<path d="M209.862 251.821C213.717 250.855 217.713 250.583 221.663 251.015C224.818 251.362 228.069 252.239 230.372 254.42C233.176 257.075 234.077 261.18 234.152 265.038C234.275 272.721 231.724 280.209 226.933 286.222C225.763 287.743 224.372 289.08 222.806 290.19C221.116 291.246 219.316 292.112 217.436 292.774L175.753 309.195C164.788 313.514 153.783 317.847 142.345 320.694C142.033 320.845 141.693 320.932 141.346 320.95C140.999 320.967 140.652 320.916 140.326 320.797C139.999 320.679 139.7 320.497 139.445 320.261C139.19 320.026 138.985 319.742 138.842 319.426C135.19 314.216 132.126 308.618 129.706 302.735C129.591 302.596 129.512 302.43 129.475 302.253C129.438 302.077 129.444 301.893 129.493 301.72C129.542 301.546 129.632 301.386 129.756 301.254C129.879 301.122 130.033 301.022 130.204 300.962L159.686 284.044C161.798 282.832 163.933 281.603 165.687 279.914C166.961 278.681 168.004 277.23 168.768 275.631C169.379 274.356 169.436 271.347 170.217 270.405C170.981 269.483 173.595 269.409 174.803 269.046C176.506 268.525 178.173 267.895 179.796 267.161C186.391 264.214 192.263 259.933 198.586 256.483C202.132 254.458 205.921 252.891 209.862 251.821Z" fill="#2F2E41"/>
<path opacity="0.1" d="M193.148 264.455C188.083 268.255 181.524 271.747 176.504 275.647C174.791 276.978 146.23 293.015 145.826 295.145C150.509 295.933 180.344 275.088 184.612 273.008C188.881 270.928 192.665 267.995 196.414 265.083C197.37 264.341 201.419 262.111 198.676 261.282C197.131 260.815 194.289 263.696 193.148 264.455Z" fill="black"/>
<path d="M158.296 140.642H113.833C112.026 140.642 110.294 141.359 109.017 142.635C107.739 143.91 107.022 145.641 107.022 147.445V149.936H106.539V155.507H107.022V159.406H106.539V162.749H107.022V203.854C107.022 205.658 107.739 207.388 109.017 208.664C110.294 209.94 112.026 210.657 113.833 210.657H158.296C160.102 210.657 161.835 209.94 163.112 208.664C164.389 207.388 165.107 205.658 165.107 203.854V147.445C165.107 145.641 164.389 143.91 163.112 142.635C161.835 141.359 160.102 140.642 158.296 140.642Z" fill="#3F3D56"/>
<path d="M165.362 88.0984L142.811 76.3006L111.668 81.1272L105.225 109.549L121.265 108.933L125.745 98.4908V108.761L133.146 108.476L137.442 91.8524L140.126 109.549L166.436 109.013L165.362 88.0984Z" fill="#2F2E41"/>
<path d="M88.7626 248.139C89.8768 249.801 91.1824 251.426 92.9721 252.322C95.2084 253.442 97.9689 253.242 100.208 252.128C102.428 250.939 104.246 249.119 105.43 246.899C107.881 242.576 108.389 237.404 108.083 232.446C107.777 227.488 106.717 222.606 106.248 217.661C105.907 214.066 105.879 210.45 105.852 206.839C105.846 206.08 105.858 205.262 106.307 204.65C106.85 203.91 107.844 203.706 108.725 203.444C113.671 201.977 116.955 197.346 119.308 192.76C120.88 189.697 122.247 186.35 121.944 182.922C121.641 179.494 119.174 176.041 115.746 175.691C112.92 175.403 110.311 177.195 108.272 179.171C103.13 184.187 99.8251 190.783 98.8887 197.901C98.4412 201.386 98.5694 204.966 97.6202 208.35C95.5935 215.575 89.2522 220.004 86.0921 226.505C82.61 233.669 84.5318 241.801 88.7626 248.139Z" fill="#A0616A"/>
<path d="M182.078 220.538C181.357 222.213 180.307 223.728 178.99 224.991C177.673 226.255 176.116 227.242 174.411 227.895C172.292 228.745 169.954 228.888 167.747 228.303C166.652 227.999 165.642 227.448 164.795 226.692C163.948 225.935 163.288 224.994 162.864 223.941C162.527 222.881 162.341 221.778 162.314 220.665C161.997 215.793 162.12 210.773 163.892 206.222C164.575 204.467 165.497 202.803 166.036 200.998C166.651 198.94 166.749 196.769 166.843 194.623L167.426 181.329C167.522 180.364 167.455 179.39 167.228 178.447C166.647 176.524 164.847 175.274 163.196 174.127C159.207 171.356 155.266 168.124 153.333 163.672C152.741 162.31 152.351 160.796 152.651 159.342C153.196 156.702 155.864 154.993 158.5 154.417C160.225 154.041 162.008 154.016 163.743 154.347C165.477 154.677 167.127 155.354 168.593 156.338C170.058 157.321 171.309 158.591 172.27 160.071C173.231 161.55 173.882 163.209 174.184 164.946C174.445 166.446 174.441 167.979 174.594 169.494C174.918 172.707 175.939 175.805 176.578 178.971C178.152 186.77 177.337 194.832 178.893 202.63C180.195 209.15 185.102 213.404 182.078 220.538Z" fill="#A0616A"/>
<path d="M136.659 170.548C139.74 170.548 142.237 168.054 142.237 164.977C142.237 161.901 139.74 159.406 136.659 159.406C133.579 159.406 131.082 161.901 131.082 164.977C131.082 168.054 133.579 170.548 136.659 170.548Z" fill="#D0CDE1"/>
</g>
<path d="M233.352 120.635L219.83 135.781C231.064 140.543 242.435 133.933 247.096 130.619C262.147 138.883 279.784 141.107 296.419 136.838C313.053 132.569 327.434 122.129 336.637 107.64C345.84 93.1513 349.173 75.7035 345.958 58.8464C342.743 41.9894 333.221 26.9896 319.329 16.899C305.438 6.80834 288.221 2.38499 271.182 4.5289C254.143 6.67281 238.561 15.2229 227.607 28.4396C216.653 41.6562 211.149 58.5465 212.217 75.6738C213.284 92.8011 220.842 108.879 233.352 120.635V120.635Z" fill="#2A3D45"/>
<path d="M243.183 60.4153C257.133 60.2702 271.081 60.021 285.031 59.8316C289.681 59.7685 294.332 59.7131 298.982 59.6656C302.989 59.6239 303 53.3977 298.982 53.4395C285.032 53.5846 271.084 53.8338 257.134 54.0232C252.484 54.0863 247.834 54.1416 243.183 54.1892C239.176 54.2309 239.166 60.4571 243.183 60.4153Z" fill="white"/>
<path d="M243.183 74.9429L299.563 74.3592L315.598 74.1932C319.605 74.1517 319.616 67.9255 315.598 67.9671L259.218 68.5508L243.183 68.7168C239.176 68.7583 239.165 74.9845 243.183 74.9429Z" fill="white"/>
<path d="M243.183 89.4705L299.563 88.8868L315.598 88.7208C319.605 88.6793 319.616 82.453 315.598 82.4946L259.218 83.0783L243.183 83.2444C239.176 83.2858 239.165 89.5121 243.183 89.4705Z" fill="white"/>
<path d="M201.912 148.881C204.625 148.881 206.825 146.683 206.825 143.972C206.825 141.261 204.625 139.064 201.912 139.064C199.199 139.064 197 141.261 197 143.972C197 146.683 199.199 148.881 201.912 148.881Z" fill="#2A3D45"/>
<path d="M470.706 148.428C470.699 130.777 464.889 113.617 454.169 99.5866C443.45 85.5566 428.414 75.434 411.375 70.7757C394.336 66.1174 376.237 67.1814 359.862 73.804C343.487 80.4266 329.743 92.2411 320.744 107.43C311.744 122.62 307.988 140.342 310.052 157.873C312.117 175.403 319.888 191.771 332.17 204.458C344.453 217.144 360.566 225.448 378.032 228.092C395.498 230.735 413.35 227.572 428.841 219.089C434.415 223.051 448.013 230.955 461.446 225.262L445.276 207.15C453.315 199.625 459.719 190.529 464.094 180.428C468.468 170.327 470.719 159.435 470.706 148.428Z" fill="#426675"/>
<path d="M348.851 135.139C365.533 134.965 382.212 134.667 398.893 134.441C404.454 134.365 410.015 134.299 415.576 134.242C420.368 134.192 420.38 126.747 415.576 126.797C398.895 126.971 382.215 127.269 365.534 127.495C359.973 127.571 354.412 127.637 348.851 127.694C344.059 127.743 344.047 135.189 348.851 135.139Z" fill="white"/>
<path d="M348.851 152.511L416.271 151.813L435.446 151.614C440.237 151.565 440.25 144.119 435.446 144.169L368.025 144.867L348.851 145.066C344.059 145.115 344.047 152.561 348.851 152.511V152.511Z" fill="white"/>
<path d="M348.851 169.883L416.271 169.185L435.446 168.987C440.237 168.937 440.25 161.492 435.446 161.541L368.025 162.239L348.851 162.438C344.059 162.487 344.047 169.933 348.851 169.883Z" fill="white"/>
<defs>
<clipPath id="clip0">
<rect width="402" height="367" fill="white"/>
</clipPath>
</defs>
</svg>
