<?xml version="1.0" encoding="utf-8"?>
<!-- Generator: Adobe Illustrator 24.0.1, SVG Export Plug-In . SVG Version: 6.00 Build 0)  -->
<svg version="1.1" id="Layer_1" xmlns="http://www.w3.org/2000/svg" xmlns:xlink="http://www.w3.org/1999/xlink" x="0px" y="0px"
	 viewBox="0 0 152.1 95.4" style="enable-background:new 0 0 152.1 95.4;" xml:space="preserve">
<style type="text/css">
	.st0{fill:#61E294;}
	.st1{fill:#2A3D45;}
	.st2{fill:none;stroke:#61E294;stroke-width:3;stroke-linecap:round;}
	.st3{fill:none;stroke:#2A3D45;stroke-width:3;stroke-linecap:round;}
</style>
<path class="st0" d="M115.9,53.9V36.2c0-1.3,0.3-2.3,1-3c0.7-0.7,1.5-1.4,2.5-2c0.9-0.6,1.7-0.9,2.2-0.9c0.8,0,1.2,0.5,1.2,1.5V51
	c0,1.3-0.6,2.4-1.9,3.2c-1.3,0.8-2.5,1.2-3.7,1.2C116.3,55.4,115.9,54.9,115.9,53.9z M132.4,18c1.5,0,3,0.3,4.6,0.9
	c1.6,0.6,2.4,1.3,2.4,2.3c0,0.7-0.5,1.5-1.6,2.4c-1.1,0.8-2,1.2-2.8,1.2c-0.7,0-1.7-0.3-2.9-0.9c-1.2-0.5-2.3-0.8-3.2-0.8
	c-0.6,0-1.2,0.1-1.8,0.3c-0.6,0.2-1.2,0.5-2,1c-0.7,0.5-1.4,0.9-1.8,1.3c-0.5,0.4-1.3,1-2.4,2c-1.1,1-2,1.7-2.7,2.2
	c-0.6,0.4-1,0.7-1.4,0.7c-0.6,0-0.8-0.4-0.8-1.3v-6.8c0-1.3,0.6-2.3,1.9-3.2c1.3-0.8,2.5-1.3,3.7-1.3c0.9,0,1.3,0.5,1.3,1.5v2
	c0,0.7,0.2,1.1,0.5,1.1c0.3,0,0.7-0.3,1.3-0.8C127.4,19.3,130,18,132.4,18z"/>
<path class="st1" d="M80.2,52.8V4.5c0-1.3,0.6-2.3,1.9-3.2C83.4,0.5,84.6,0,85.8,0c0.9,0,1.3,0.5,1.3,1.5v48.3
	c0,1.3-0.6,2.4-1.9,3.2c-1.3,0.8-2.5,1.2-3.7,1.2C80.7,54.3,80.2,53.8,80.2,52.8z M108.4,51.7c-1.1,1.7-2.3,2.6-3.6,2.6
	c-0.6,0-1.2-0.4-1.9-1.3L89.7,35.3c-0.4-0.6-0.7-1.1-0.7-1.5c0-0.6,0.3-1.2,1-1.9l11.3-11.5c1.1-1.1,2.1-1.8,2.9-2
	c0.9-0.2,2.3-0.4,4.4-0.4c0.8,0,1.2,0.3,1.2,0.9c0,0.4-0.4,1-1.1,1.6L97.4,31.3c-0.6,0.6-0.9,1.1-0.9,1.5c0,0.4,0.2,0.8,0.7,1.3
	l11.2,14c0.5,0.6,0.7,1.2,0.7,1.7C109,50.5,108.8,51.1,108.4,51.7z"/>
<path class="st1" d="M70,46c0-2.5-0.8-4.3-2.3-5.4c-1.5-1.1-3.6-1.7-6.5-2c-2.5-0.2-4.6-0.6-6.4-1.2c-1.8-0.6-3.2-1.2-4.2-2
	c-1-0.8-1.7-1.7-2.2-2.6c-0.4-0.9-0.7-1.9-0.7-3c0-1.1,0.6-2.1,1.8-2.9c1.2-0.9,2.3-1.3,3.1-1.3c0.6,0,1,0.4,1.2,1.1
	c0.2,0.8,0.4,1.5,0.6,2c0.2,0.5,0.5,1,0.9,1.4c0.4,0.4,0.8,0.7,1.2,1c0.4,0.2,1,0.5,1.8,0.7c0.8,0.2,1.6,0.3,2.4,0.5
	c0.8,0.1,1.9,0.3,3.3,0.4c2.2,0.3,4.1,0.7,5.7,1.4c1.6,0.7,2.7,1.5,3.5,2.5c0.8,1,1.4,2,1.7,3.1c0.3,1.1,0.5,2.2,0.5,3.6
	c0,1.5-0.3,2.9-0.8,4.3c-0.5,1.4-1.2,2.5-2,3.3c-0.8,0.8-1.6,1.5-2.4,2c-0.8,0.5-1.5,0.7-2.2,0.7c-0.4,0-0.6-0.2-0.6-0.5
	c0-0.1,0.2-0.5,0.6-1.1C69.4,50.2,70,48.2,70,46z M72.5,18.9c0.8,0.6,1.2,1.1,1.2,1.6c0,0.6-0.5,1.3-1.6,2.2c-1.1,0.8-2,1.3-2.9,1.3
	c-0.3,0-0.5,0-0.7-0.1c-0.2-0.1-0.5-0.2-0.9-0.3c-0.4-0.2-0.7-0.3-0.8-0.3c-2.4-0.9-4.6-1.4-6.5-1.4c-3.6,0-6.8,0.8-9.5,2.3
	c-0.2,0.1-0.4,0.2-0.8,0.4c-0.3,0.2-0.6,0.3-0.8,0.5c-0.2,0.1-0.3,0.1-0.5,0.1c-0.4,0-0.5-0.2-0.5-0.6c0-0.5,0.4-1.2,1.2-2.1
	c3.4-3.7,8.1-5.6,14.3-5.6c1.6,0,3.3,0.2,5,0.5C70.3,17.8,71.6,18.3,72.5,18.9z M55.1,48.2c0.8,0.5,1.4,0.8,1.7,0.9
	c0.3,0.2,0.9,0.4,1.7,0.6c0.8,0.2,1.6,0.3,2.5,0.3c1.1,0,2.2-0.2,3.3-0.5c1.1-0.3,1.7-0.5,1.7-0.5c0.6,0,0.9,0.3,0.9,0.8
	c0,0.4-0.2,0.8-0.6,1.4c-0.4,0.5-1,1.1-1.7,1.7c-0.7,0.6-1.8,1-3.1,1.4c-1.3,0.4-2.7,0.6-4.2,0.6c-2.2,0-4.2-0.5-6.2-1.4
	c-2-0.9-3-1.8-3-2.8c0-0.7,0.5-1.5,1.6-2.2c1.1-0.8,2.1-1.2,3.1-1.2C53.5,47.5,54.2,47.7,55.1,48.2z"/>
<path class="st1" d="M29,16.9c2.2,0,4.1,0.3,5.8,0.8c1.7,0.5,3.2,1.3,4.3,2.5c1.2,1.1,2.1,2.6,2.7,4.4c0.6,1.8,1,3.9,1,6.5v19
	c0,0.6-0.2,1.1-0.6,1.6c-0.4,0.5-0.9,1-1.5,1.4c-0.6,0.4-1.2,0.7-1.8,0.9c-0.6,0.2-1.2,0.4-1.7,0.4c-0.9,0-1.3-0.5-1.3-1.5V32.3
	c0-6.9-3-10.4-9-10.4c-3.5,0-6.7,0.9-9.5,2.6c-1.1,0.7-1.9,1-2.2,1c-0.4,0-0.6-0.2-0.6-0.6c0-0.7,0.4-1.4,1.2-2.3
	C19.2,18.8,23.6,16.9,29,16.9z M32.9,52c-1.1,0.9-2.4,1.6-4,2.2c-1.6,0.6-3.1,0.9-4.6,0.9c-3.4,0-6-0.8-7.8-2.5
	c-1.8-1.7-2.7-3.7-2.7-6.1c0-1.7,0.7-3.1,2-4c1.2-0.8,2.2-1.3,3.1-1.3c0.3,0,0.5,0.1,0.7,0.3c0.2,0.2,0.3,0.5,0.3,0.8
	c0,2.7,0.5,4.6,1.5,5.8c1,1.2,2.8,1.8,5.3,1.8c0.8,0,1.7-0.1,2.8-0.4c1.1-0.3,2-0.6,2.8-1c0.5-0.3,0.8-0.4,1-0.4
	c0.4,0,0.5,0.4,0.5,1.3C33.9,50.6,33.5,51.4,32.9,52z M32.6,33c0.5,0.2,0.8,0.5,1,0.9c0.2,0.4,0.3,1.1,0.3,2.1c0,0.9-0.1,1.6-0.3,2
	c-0.2,0.4-0.4,0.6-0.9,0.6c-0.3,0-0.7-0.1-1.2-0.3c-2.4-1-4.6-1.4-6.5-1.4c-3.2,0-6.2,1-9,3.1c-0.9,0.7-1.5,1-1.8,1
	c-0.4,0-0.6-0.2-0.6-0.6c0-0.7,0.3-1.4,0.8-2.1c1.4-2.1,3.1-3.7,5.3-4.7c2.2-1.1,4.7-1.6,7.4-1.6C29.2,31.9,31,32.3,32.6,33z"/>
<path class="st2" d="M150.4,6.8h-29.5"/>
<path class="st3" d="M1.6,40.5v26.9"/>
<path class="st3" d="M100,67.4H41"/>
<path class="st2" d="M150.4,6.8v26.9"/>
<path class="st3" d="M41,67.4L16.4,93.2"/>
<path class="st3" d="M21.3,67.4L16,93.9"/>
<path class="st3" d="M1.6,67.4h19.7"/>
</svg>
